# xmcd
#
# Track frame offsets: 
#        150
#        12068
#        26010
#        44515
#        62574
#        93320
#        106559
#        123802
#        141260
#        152853
#        165067
#        176926
#
# Disc length: 2539 seconds
#
# Revision: 1
# Processed by: cddbd v1.5.2PL0 Copyright (c) Steve Scherf et al.
# Submitted via: ExactAudioCopy v1.0b1
#
DISCID=8c09e90c
DTITLE=Jose Feliciano - The Very Best Of
DYEAR=1900
DGENRE=Pop
TTITLE0=Rain
TTITLE1=Light My Fire
TTITLE2=Che Sera Sera
TTITLE3=California Dreamin
TTITLE4=Bamboleo
TTITLE5=La Bamba
TTITLE6=Samba Pa Ti
TTITLE7=Daniel
TTITLE8=Mystery Train
TTITLE9=Mule Skinner
TTITLE10=Pegao
TTITLE11=Chico and the Man
EXTD=
EXTT0=
EXTT1=
EXTT2=
EXTT3=
EXTT4=
EXTT5=
EXTT6=
EXTT7=
EXTT8=
EXTT9=
EXTT10=
EXTT11=
PLAYORDER=
